<?xml version="1.0" standalone="no"?>
<svg xmlns:xlink="http://www.w3.org/1999/xlink" id="wave" style="transform:rotate(0deg); transition: 0.3s" viewBox="0 0 1440 490" version="1.1" xmlns="http://www.w3.org/2000/svg"><defs><linearGradient id="sw-gradient-0" x1="0" x2="0" y1="1" y2="0"><stop stop-color="rgba(255, 255, 255, 1)" offset="0%"/><stop stop-color="rgba(255, 255, 255, 1)" offset="100%"/></linearGradient></defs><path style="transform:translate(0, 0px); opacity:1" fill="url(#sw-gradient-0)" d="M0,245L240,277.7C480,310,960,376,1440,359.3C1920,343,2400,245,2880,228.7C3360,212,3840,278,4320,261.3C4800,245,5280,147,5760,147C6240,147,6720,245,7200,310.3C7680,376,8160,408,8640,351.2C9120,294,9600,147,10080,98C10560,49,11040,98,11520,155.2C12000,212,12480,278,12960,277.7C13440,278,13920,212,14400,220.5C14880,229,15360,310,15840,310.3C16320,310,16800,229,17280,236.8C17760,245,18240,343,18720,375.7C19200,408,19680,376,20160,318.5C20640,261,21120,180,21600,163.3C22080,147,22560,196,23040,236.8C23520,278,24000,310,24480,269.5C24960,229,25440,114,25920,130.7C26400,147,26880,294,27360,326.7C27840,359,28320,278,28800,269.5C29280,261,29760,327,30240,351.2C30720,376,31200,359,31680,367.5C32160,376,32640,408,33120,392C33600,376,34080,310,34320,277.7L34560,245L34560,490L34320,490C34080,490,33600,490,33120,490C32640,490,32160,490,31680,490C31200,490,30720,490,30240,490C29760,490,29280,490,28800,490C28320,490,27840,490,27360,490C26880,490,26400,490,25920,490C25440,490,24960,490,24480,490C24000,490,23520,490,23040,490C22560,490,22080,490,21600,490C21120,490,20640,490,20160,490C19680,490,19200,490,18720,490C18240,490,17760,490,17280,490C16800,490,16320,490,15840,490C15360,490,14880,490,14400,490C13920,490,13440,490,12960,490C12480,490,12000,490,11520,490C11040,490,10560,490,10080,490C9600,490,9120,490,8640,490C8160,490,7680,490,7200,490C6720,490,6240,490,5760,490C5280,490,4800,490,4320,490C3840,490,3360,490,2880,490C2400,490,1920,490,1440,490C960,490,480,490,240,490L0,490Z"/></svg>